<?xml version="1.0" encoding="UTF-8" standalone="no"?>
<!-- Creator: CorelDRAW X7 -->

<svg
   xmlns:dc="http://purl.org/dc/elements/1.1/"
   xmlns:cc="http://creativecommons.org/ns#"
   xmlns:rdf="http://www.w3.org/1999/02/22-rdf-syntax-ns#"
   xmlns:svg="http://www.w3.org/2000/svg"
   xmlns="http://www.w3.org/2000/svg"
   xmlns:sodipodi="http://sodipodi.sourceforge.net/DTD/sodipodi-0.dtd"
   xmlns:inkscape="http://www.inkscape.org/namespaces/inkscape"
   xml:space="preserve"
   width="256"
   height="256"
   version="1.1"
   style="clip-rule:evenodd;fill-rule:evenodd;image-rendering:optimizeQuality;shape-rendering:geometricPrecision;text-rendering:geometricPrecision"
   viewBox="0 0 2560 2560"
   id="svg907"
   sodipodi:docname="icon-outline-256px.svg"
   inkscape:version="0.92.4 5da689c313, 2019-01-14"><metadata
   id="metadata911"><rdf:RDF><cc:Work
       rdf:about=""><dc:format>image/svg+xml</dc:format><dc:type
         rdf:resource="http://purl.org/dc/dcmitype/StillImage" /><dc:title></dc:title></cc:Work></rdf:RDF></metadata><sodipodi:namedview
   pagecolor="#ffffff"
   bordercolor="#666666"
   borderopacity="1"
   objecttolerance="10"
   gridtolerance="10"
   guidetolerance="10"
   inkscape:pageopacity="0"
   inkscape:pageshadow="2"
   inkscape:window-width="1920"
   inkscape:window-height="1016"
   id="namedview909"
   showgrid="false"
   units="px"
   scale-x="10"
   inkscape:zoom="1.7673236"
   inkscape:cx="74.208315"
   inkscape:cy="109.62353"
   inkscape:window-x="0"
   inkscape:window-y="27"
   inkscape:window-maximized="1"
   inkscape:current-layer="Layer_x0020_1" />
 <defs
   id="defs901">
  <style
   type="text/css"
   id="style899">
   <![CDATA[
    .fil0 {fill:#FF4B03}
   ]]>
  </style>
 </defs>
 <g
   id="Layer_x0020_1"
   transform="translate(0,1919.9456)">
  <metadata
   id="CorelCorpID_0Corel-Layer" />
  <polygon
   class="fil0"
   points="185,107 58,180 144,230 228,181 370,100 511,181 652,263 370,425 87,263 87,263 0,213 0,213 0,311 0,378 0,427 0,476 86,525 185,582 370,689 554,582 653,525 653,590 653,592 370,754 0,542 0,640 185,747 370,853 554,747 739,640 739,525 739,476 739,427 739,378 653,427 370,589 86,427 86,361 185,418 370,524 554,418 653,361 739,311 739,213 554,107 370,0 "
   id="polygon904"
   style="fill:none;stroke:#ff4b03;stroke-width:6.6942799;stroke-miterlimit:4;stroke-dasharray:none;stroke-opacity:1"
   transform="matrix(2.9876253,0,0,2.9876253,176.07245,-1914.161)" />
 </g>
</svg>