<?xml version="1.0" encoding="UTF-8" standalone="no"?>
<!-- Creator: CorelDRAW X7 -->

<svg
   xml:space="preserve"
   width="24"
   height="24"
   version="1.1"
   style="clip-rule:evenodd;fill-rule:evenodd;image-rendering:optimizeQuality;shape-rendering:geometricPrecision;text-rendering:geometricPrecision"
   viewBox="0 0 249.99729 249.90068"
   id="svg1"
   sodipodi:docname="icon-square.svg"
   inkscape:version="1.3 (0e150ed6c4, 2023-07-21)"
   xmlns:inkscape="http://www.inkscape.org/namespaces/inkscape"
   xmlns:sodipodi="http://sodipodi.sourceforge.net/DTD/sodipodi-0.dtd"
   xmlns="http://www.w3.org/2000/svg"
   xmlns:svg="http://www.w3.org/2000/svg"><sodipodi:namedview
   id="namedview1"
   pagecolor="#ffffff"
   bordercolor="#666666"
   borderopacity="1.0"
   inkscape:showpageshadow="2"
   inkscape:pageopacity="0.0"
   inkscape:pagecheckerboard="true"
   inkscape:deskcolor="#d1d1d1"
   inkscape:document-units="in"
   inkscape:zoom="6.5838793"
   inkscape:cx="2.1264059"
   inkscape:cy="39.414453"
   inkscape:window-width="2160"
   inkscape:window-height="1281"
   inkscape:window-x="0"
   inkscape:window-y="0"
   inkscape:window-maximized="1"
   inkscape:current-layer="Layer_x0020_1" />&#10; <defs
   id="defs1"><style
     type="text/css"
     id="style1">&#10;   <![CDATA[
    .fil0 {fill:#FF4B03}
   ]]>&#10;  </style></defs>&#10; <g
   id="Layer_x0020_1"
   inkscape:label="Layer 1"
   inkscape:groupmode="layer"
   transform="translate(-66.822266,-0.16483529)">&#10;  <metadata
   id="CorelCorpID_0Corel-Layer" />&#10;  <polygon
   class="fil0"
   points="228,181 370,100 511,181 652,263 370,425 87,263 87,263 0,213 0,213 0,311 0,378 0,427 0,476 86,525 185,582 370,689 554,582 653,525 653,590 653,592 370,754 0,542 0,640 185,747 370,853 554,747 739,640 739,525 739,476 739,427 739,378 653,427 370,589 86,427 86,361 185,418 370,524 554,418 653,361 739,311 739,213 554,107 370,0 185,107 58,180 144,230 "
   id="polygon1"
   transform="matrix(0.29308006,0,0,0.29308006,83.527829,-0.02838471)"
   style="fill:#000000;fill-opacity:1" />&#10; </g>&#10;</svg>
