<?xml version="1.0" encoding="UTF-8" standalone="no"?>
<svg
   xmlns:dc="http://purl.org/dc/elements/1.1/"
   xmlns:cc="http://creativecommons.org/ns#"
   xmlns:rdf="http://www.w3.org/1999/02/22-rdf-syntax-ns#"
   xmlns:svg="http://www.w3.org/2000/svg"
   xmlns="http://www.w3.org/2000/svg"
   version="1.1"
   id="svg2"
   viewBox="0 0 1920 1080"
   height="1152"
   width="2048">
  <defs
     id="defs4" />
  <metadata
     id="metadata7">
    <rdf:RDF>
      <cc:Work
         rdf:about="">
        <dc:format>image/svg+xml</dc:format>
        <dc:type
           rdf:resource="http://purl.org/dc/dcmitype/StillImage" />
        <dc:title></dc:title>
      </cc:Work>
    </rdf:RDF>
  </metadata>
  <g
     transform="translate(0,27.63784)"
     id="layer1">
    <g
       id="Layer_x0020_1-5"
       style="clip-rule:evenodd;fill:#05ffc9;fill-opacity:1;fill-rule:evenodd;image-rendering:optimizeQuality;shape-rendering:geometricPrecision;text-rendering:geometricPrecision"
       transform="matrix(0.09181498,0,0,0.09181498,1277.2524,660.42336)">
      <metadata
         id="CorelCorpID_0Corel-Layer-3" />
      <polygon
         style="fill:#05ffc9;fill-opacity:1"
         id="polygon4969-5"
         points="554,418 653,361 739,311 739,213 739,213 554,107 370,0 185,107 58,180 144,230 228,181 370,100 511,181 652,263 370,425 87,263 87,263 0,213 0,213 0,311 0,378 0,427 0,476 86,525 185,582 370,689 554,582 653,525 653,590 653,592 370,754 0,542 0,640 185,747 370,853 554,747 739,640 739,525 739,525 739,476 739,427 739,378 653,427 370,589 86,427 86,427 86,361 185,418 370,524 "
         class="fil0" />
    </g>
    <g
       id="Layer_x0020_1-1"
       style="clip-rule:evenodd;fill:#ff05b8;fill-opacity:1;fill-rule:evenodd;image-rendering:optimizeQuality;shape-rendering:geometricPrecision;text-rendering:geometricPrecision"
       transform="matrix(0.06868474,0,0,0.06868474,519.63796,195.75319)">
      <metadata
         id="CorelCorpID_0Corel-Layer-27" />
      <polygon
         style="fill:#ff05b8;fill-opacity:1"
         id="polygon4969-0"
         points="370,524 554,418 653,361 739,311 739,213 739,213 554,107 370,0 185,107 58,180 144,230 228,181 370,100 511,181 652,263 370,425 87,263 87,263 0,213 0,213 0,311 0,378 0,427 0,476 86,525 185,582 370,689 554,582 653,525 653,590 653,592 370,754 0,542 0,640 185,747 370,853 554,747 739,640 739,525 739,525 739,476 739,427 739,378 653,427 370,589 86,427 86,427 86,361 185,418 "
         class="fil0" />
    </g>
    <g
       id="Layer_x0020_1-9"
       style="clip-rule:evenodd;fill:#ffc905;fill-opacity:1;fill-rule:evenodd;image-rendering:optimizeQuality;shape-rendering:geometricPrecision;text-rendering:geometricPrecision"
       transform="matrix(0.06631627,0,0,0.06631627,323.66837,502.83956)">
      <metadata
         id="CorelCorpID_0Corel-Layer-36" />
      <polygon
         style="fill:#ffc905;fill-opacity:1"
         id="polygon4969-06"
         points="554,418 653,361 739,311 739,213 739,213 554,107 370,0 185,107 58,180 144,230 228,181 370,100 511,181 652,263 370,425 87,263 87,263 0,213 0,213 0,311 0,378 0,427 0,476 86,525 185,582 370,689 554,582 653,525 653,590 653,592 370,754 0,542 0,640 185,747 370,853 554,747 739,640 739,525 739,525 739,476 739,427 739,378 653,427 370,589 86,427 86,427 86,361 185,418 370,524 "
         class="fil0" />
    </g>
    <g
       id="Layer_x0020_1-2"
       style="clip-rule:evenodd;fill:#05ff4c;fill-opacity:1;fill-rule:evenodd;image-rendering:optimizeQuality;shape-rendering:geometricPrecision;text-rendering:geometricPrecision"
       transform="matrix(0.07579015,0,0,0.07579015,695.4045,759.4183)">
      <metadata
         id="CorelCorpID_0Corel-Layer-61" />
      <polygon
         style="fill:#05ff4c;fill-opacity:1"
         id="polygon4969-8"
         points="370,524 554,418 653,361 739,311 739,213 739,213 554,107 370,0 185,107 58,180 144,230 228,181 370,100 511,181 652,263 370,425 87,263 87,263 0,213 0,213 0,311 0,378 0,427 0,476 86,525 185,582 370,689 554,582 653,525 653,590 653,592 370,754 0,542 0,640 185,747 370,853 554,747 739,640 739,525 739,525 739,476 739,427 739,378 653,427 370,589 86,427 86,427 86,361 185,418 "
         class="fil0" />
    </g>
    <g
       id="Layer_x0020_1-7"
       style="clip-rule:evenodd;fill:#c905ff;fill-opacity:1;fill-rule:evenodd;image-rendering:optimizeQuality;shape-rendering:geometricPrecision;text-rendering:geometricPrecision"
       transform="matrix(0.06174278,0,0,0.06174278,1293.4148,143.08583)">
      <metadata
         id="CorelCorpID_0Corel-Layer-9" />
      <polygon
         style="fill:#c905ff;fill-opacity:1"
         id="polygon4969-2"
         points="370,524 554,418 653,361 739,311 739,213 739,213 554,107 370,0 185,107 58,180 144,230 228,181 370,100 511,181 652,263 370,425 87,263 87,263 0,213 0,213 0,311 0,378 0,427 0,476 86,525 185,582 370,689 554,582 653,525 653,590 653,592 370,754 0,542 0,640 185,747 370,853 554,747 739,640 739,525 739,525 739,476 739,427 739,378 653,427 370,589 86,427 86,427 86,361 185,418 "
         class="fil0" />
    </g>
    <g
       id="Layer_x0020_1-0"
       style="clip-rule:evenodd;fill:#ff05b8;fill-opacity:1;fill-rule:evenodd;image-rendering:optimizeQuality;shape-rendering:geometricPrecision;text-rendering:geometricPrecision"
       transform="matrix(0.08526403,0,0,0.08526403,1723.7398,462.43346)">
      <metadata
         id="CorelCorpID_0Corel-Layer-23" />
      <polygon
         style="fill:#ff05b8;fill-opacity:1"
         id="polygon4969-75"
         points="370,524 554,418 653,361 739,311 739,213 739,213 554,107 370,0 185,107 58,180 144,230 228,181 370,100 511,181 652,263 370,425 87,263 87,263 0,213 0,213 0,311 0,378 0,427 0,476 86,525 185,582 370,689 554,582 653,525 653,590 653,592 370,754 0,542 0,640 185,747 370,853 554,747 739,640 739,525 739,525 739,476 739,427 739,378 653,427 370,589 86,427 86,427 86,361 185,418 "
         class="fil0" />
    </g>
    <g
       id="Layer_x0020_1-92"
       style="clip-rule:evenodd;fill:#ff4b03;fill-opacity:1;fill-rule:evenodd;image-rendering:optimizeQuality;shape-rendering:geometricPrecision;text-rendering:geometricPrecision"
       transform="matrix(0.05684238,0,0,0.05684238,1636.8667,820.02746)">
      <metadata
         id="CorelCorpID_0Corel-Layer-28" />
      <polygon
         style="fill:#ff4b03;fill-opacity:1"
         id="polygon4969-97"
         points="370,524 554,418 653,361 739,311 739,213 739,213 554,107 370,0 185,107 58,180 144,230 228,181 370,100 511,181 652,263 370,425 87,263 87,263 0,213 0,213 0,311 0,378 0,427 0,476 86,525 185,582 370,689 554,582 653,525 653,590 653,592 370,754 0,542 0,640 185,747 370,853 554,747 739,640 739,525 739,525 739,476 739,427 739,378 653,427 370,589 86,427 86,427 86,361 185,418 "
         class="fil0" />
    </g>
    <g
       id="Layer_x0020_1-36"
       style="clip-rule:evenodd;fill:#05ff4c;fill-opacity:1;fill-rule:evenodd;image-rendering:optimizeQuality;shape-rendering:geometricPrecision;text-rendering:geometricPrecision"
       transform="matrix(0.08634731,0,0,0.08634731,931.7802,144.32152)">
      <metadata
         id="CorelCorpID_0Corel-Layer-1" />
    </g>
    <g
       id="Layer_x0020_1-31"
       style="clip-rule:evenodd;fill:#05ffc9;fill-opacity:1;fill-rule:evenodd;image-rendering:optimizeQuality;shape-rendering:geometricPrecision;text-rendering:geometricPrecision"
       transform="matrix(0.06174278,0,0,0.06174278,206.49067,56.352135)">
      <metadata
         id="CorelCorpID_0Corel-Layer-94" />
      <polygon
         style="fill:#05ffc9;fill-opacity:1"
         id="polygon4969-78"
         points="370,524 554,418 653,361 739,311 739,213 739,213 554,107 370,0 185,107 58,180 144,230 228,181 370,100 511,181 652,263 370,425 87,263 87,263 0,213 0,213 0,311 0,378 0,427 0,476 86,525 185,582 370,689 554,582 653,525 653,590 653,592 370,754 0,542 0,640 185,747 370,853 554,747 739,640 739,525 739,525 739,476 739,427 739,378 653,427 370,589 86,427 86,427 86,361 185,418 "
         class="fil0" />
    </g>
    <g
       id="Layer_x0020_1-61"
       style="clip-rule:evenodd;fill:#053bff;fill-opacity:1;fill-rule:evenodd;image-rendering:optimizeQuality;shape-rendering:geometricPrecision;text-rendering:geometricPrecision"
       transform="matrix(0.05921086,0,0,0.05921086,271.14043,783.66197)">
      <metadata
         id="CorelCorpID_0Corel-Layer-0" />
      <polygon
         style="fill:#053bff;fill-opacity:1"
         id="polygon4969-6"
         points="370,524 554,418 653,361 739,311 739,213 739,213 554,107 370,0 185,107 58,180 144,230 228,181 370,100 511,181 652,263 370,425 87,263 87,263 0,213 0,213 0,311 0,378 0,427 0,476 86,525 185,582 370,689 554,582 653,525 653,590 653,592 370,754 0,542 0,640 185,747 370,853 554,747 739,640 739,525 739,525 739,476 739,427 739,378 653,427 370,589 86,427 86,427 86,361 185,418 "
         class="fil0" />
    </g>
    <g
       id="Layer_x0020_1-32"
       style="clip-rule:evenodd;fill:#ff4b03;fill-opacity:1;fill-rule:evenodd;image-rendering:optimizeQuality;shape-rendering:geometricPrecision;text-rendering:geometricPrecision"
       transform="matrix(0.09000097,0,0,0.09000097,459.02881,886.69753)">
      <metadata
         id="CorelCorpID_0Corel-Layer-06" />
      <polygon
         style="fill:#ff4b03;fill-opacity:1"
         id="polygon4969-1"
         points="370,524 554,418 653,361 739,311 739,213 739,213 554,107 370,0 185,107 58,180 144,230 228,181 370,100 511,181 652,263 370,425 87,263 87,263 0,213 0,213 0,311 0,378 0,427 0,476 86,525 185,582 370,689 554,582 653,525 653,590 653,592 370,754 0,542 0,640 185,747 370,853 554,747 739,640 739,525 739,525 739,476 739,427 739,378 653,427 370,589 86,427 86,427 86,361 185,418 "
         class="fil0" />
    </g>
    <g
       id="Layer_x0020_1-55"
       style="clip-rule:evenodd;fill:#ffc905;fill-opacity:1;fill-rule:evenodd;image-rendering:optimizeQuality;shape-rendering:geometricPrecision;text-rendering:geometricPrecision"
       transform="matrix(0.09454882,0,0,0.09454882,1790.4098,13.925728)">
      <metadata
         id="CorelCorpID_0Corel-Layer-4" />
      <polygon
         style="fill:#ffc905;fill-opacity:1"
         id="polygon4969-76"
         points="370,524 554,418 653,361 739,311 739,213 739,213 554,107 370,0 185,107 58,180 144,230 228,181 370,100 511,181 652,263 370,425 87,263 87,263 0,213 0,213 0,311 0,378 0,427 0,476 86,525 185,582 370,689 554,582 653,525 653,590 653,592 370,754 0,542 0,640 185,747 370,853 554,747 739,640 739,525 739,525 739,476 739,427 739,378 653,427 370,589 86,427 86,427 86,361 185,418 "
         class="fil0" />
    </g>
    <g
       id="Layer_x0020_1-56"
       style="clip-rule:evenodd;fill:#05ffc9;fill-opacity:1;fill-rule:evenodd;image-rendering:optimizeQuality;shape-rendering:geometricPrecision;text-rendering:geometricPrecision"
       transform="matrix(0.09181498,0,0,0.09181498,-33.925634,892.75844)">
      <metadata
         id="CorelCorpID_0Corel-Layer-93" />
      <polygon
         style="fill:#05ffc9;fill-opacity:1"
         id="polygon4969-74"
         points="370,524 554,418 653,361 739,311 739,213 739,213 554,107 370,0 185,107 58,180 144,230 228,181 370,100 511,181 652,263 370,425 87,263 87,263 0,213 0,213 0,311 0,378 0,427 0,476 86,525 185,582 370,689 554,582 653,525 653,590 653,592 370,754 0,542 0,640 185,747 370,853 554,747 739,640 739,525 739,525 739,476 739,427 739,378 653,427 370,589 86,427 86,427 86,361 185,418 "
         class="fil0" />
    </g>
    <g
       id="Layer_x0020_1-52"
       style="clip-rule:evenodd;fill:#ff4b03;fill-opacity:1;fill-rule:evenodd;image-rendering:optimizeQuality;shape-rendering:geometricPrecision;text-rendering:geometricPrecision"
       transform="matrix(0.08052709,0,0,0.08052709,448.92728,-68.906781)">
      <metadata
         id="CorelCorpID_0Corel-Layer-54" />
      <polygon
         style="fill:#ff4b03;fill-opacity:1"
         id="polygon4969-744"
         points="739,311 739,213 739,213 554,107 370,0 185,107 58,180 144,230 228,181 370,100 511,181 652,263 370,425 87,263 87,263 0,213 0,213 0,311 0,378 0,427 0,476 86,525 185,582 370,689 554,582 653,525 653,590 653,592 370,754 0,542 0,640 185,747 370,853 554,747 739,640 739,525 739,525 739,476 739,427 739,378 653,427 370,589 86,427 86,427 86,361 185,418 370,524 554,418 653,361 "
         class="fil0" />
    </g>
    <g
       id="Layer_x0020_1-30"
       style="clip-rule:evenodd;fill:#b8ff05;fill-opacity:1;fill-rule:evenodd;image-rendering:optimizeQuality;shape-rendering:geometricPrecision;text-rendering:geometricPrecision"
       transform="matrix(0.09473791,0,0,0.09473791,1145.9325,975.59095)">
      <metadata
         id="CorelCorpID_0Corel-Layer-7" />
      <polygon
         style="fill:#b8ff05;fill-opacity:1"
         id="polygon4969-86"
         points="554,418 653,361 739,311 739,213 739,213 554,107 370,0 185,107 58,180 144,230 228,181 370,100 511,181 652,263 370,425 87,263 87,263 0,213 0,213 0,311 0,378 0,427 0,476 86,525 185,582 370,689 554,582 653,525 653,590 653,592 370,754 0,542 0,640 185,747 370,853 554,747 739,640 739,525 739,525 739,476 739,427 739,378 653,427 370,589 86,427 86,427 86,361 185,418 370,524 "
         class="fil0" />
    </g>
    <g
       id="Layer_x0020_1-8"
       style="clip-rule:evenodd;fill:#c905ff;fill-opacity:1;fill-rule:evenodd;image-rendering:optimizeQuality;shape-rendering:geometricPrecision;text-rendering:geometricPrecision"
       transform="matrix(0.05080743,0,0,0.05080743,1030.7752,791.74319)">
      <metadata
         id="CorelCorpID_0Corel-Layer-8" />
      <polygon
         style="fill:#c905ff;fill-opacity:1"
         id="polygon4969-4"
         points="554,418 653,361 739,311 739,213 739,213 554,107 370,0 185,107 58,180 144,230 228,181 370,100 511,181 652,263 370,425 87,263 87,263 0,213 0,213 0,311 0,378 0,427 0,476 86,525 185,582 370,689 554,582 653,525 653,590 653,592 370,754 0,542 0,640 185,747 370,853 554,747 739,640 739,525 739,525 739,476 739,427 739,378 653,427 370,589 86,427 86,427 86,361 185,418 370,524 "
         class="fil0" />
    </g>
    <g
       id="Layer_x0020_1-314"
       style="clip-rule:evenodd;fill:#05b8ff;fill-opacity:1;fill-rule:evenodd;image-rendering:optimizeQuality;shape-rendering:geometricPrecision;text-rendering:geometricPrecision"
       transform="matrix(0.07579015,0,0,0.07579015,18.602298,345.25576)">
      <metadata
         id="CorelCorpID_0Corel-Layer-92" />
      <polygon
         style="fill:#05b8ff;fill-opacity:1"
         id="polygon4969-068"
         points="370,524 554,418 653,361 739,311 739,213 739,213 554,107 370,0 185,107 58,180 144,230 228,181 370,100 511,181 652,263 370,425 87,263 87,263 0,213 0,213 0,311 0,378 0,427 0,476 86,525 185,582 370,689 554,582 653,525 653,590 653,592 370,754 0,542 0,640 185,747 370,853 554,747 739,640 739,525 739,525 739,476 739,427 739,378 653,427 370,589 86,427 86,427 86,361 185,418 "
         class="fil0" />
    </g>
    <g
       id="Layer_x0020_1-926"
       style="clip-rule:evenodd;fill:#053bff;fill-opacity:1;fill-rule:evenodd;image-rendering:optimizeQuality;shape-rendering:geometricPrecision;text-rendering:geometricPrecision"
       transform="matrix(0.05080743,0,0,0.05080743,1703.5368,238.17959)">
      <metadata
         id="CorelCorpID_0Corel-Layer-64" />
      <polygon
         style="fill:#053bff;fill-opacity:1"
         id="polygon4969-95"
         points="554,418 653,361 739,311 739,213 739,213 554,107 370,0 185,107 58,180 144,230 228,181 370,100 511,181 652,263 370,425 87,263 87,263 0,213 0,213 0,311 0,378 0,427 0,476 86,525 185,582 370,689 554,582 653,525 653,590 653,592 370,754 0,542 0,640 185,747 370,853 554,747 739,640 739,525 739,525 739,476 739,427 739,378 653,427 370,589 86,427 86,427 86,361 185,418 370,524 "
         class="fil0" />
    </g>
  </g>
</svg>
